<?xml version="1.0" encoding="utf-8"?>
<!-- Generator: Adobe Illustrator 22.0.1, SVG Export Plug-In . SVG Version: 6.00 Build 0)  -->
<svg version="1.1" id="Layer_1" xmlns="http://www.w3.org/2000/svg" xmlns:xlink="http://www.w3.org/1999/xlink" x="0px" y="0px"
	 viewBox="0 0 96 96" style="enable-background:new 0 0 96 96;" xml:space="preserve">
<style type="text/css">
	.st0{fill:#FFFFFF;}
	.st1{fill:#000000;}
</style>
<path class="st0" d="M88,96L8,95.8c-4.4,0-8-3.6-8-8V8c0-4.4,3.6-8,8-8h80c4.4,0,8,3.6,8,8v80C96,92.4,92.4,96,88,96z"/>
<path class="st1" d="M75.3,16H20.7c-2.6,0-4.7,2.1-4.7,4.7v54.5c0,2.6,2.1,4.7,4.7,4.7h54.5c2.6,0,4.7-2.1,4.7-4.7V20.7
	C80,18.1,77.9,16,75.3,16z M34.9,57.5c0,0.7-0.5,1.2-1.2,1.2h-7.1c-0.7,0-1.2-0.5-1.2-1.2v-7.1c0-0.7,0.5-1.2,1.2-1.2h7.1
	c0.7,0,1.2,0.5,1.2,1.2L34.9,57.5L34.9,57.5z M34.9,45.6c0,0.7-0.5,1.2-1.2,1.2h-7.1c-0.7,0-1.2-0.5-1.2-1.2v-7.1
	c0-0.7,0.5-1.2,1.2-1.2h7.1c0.7,0,1.2,0.5,1.2,1.2L34.9,45.6L34.9,45.6z M34.9,33.8c0,0.7-0.5,1.2-1.2,1.2h-7.1
	c-0.7,0-1.2-0.5-1.2-1.2v-7.1c0-0.7,0.5-1.2,1.2-1.2h7.1c0.7,0,1.2,0.5,1.2,1.2L34.9,33.8L34.9,33.8z M46.8,69.3
	c0,0.7-0.5,1.2-1.2,1.2h-7.1c-0.7,0-1.2-0.5-1.2-1.2v-7.1c0-0.7,0.5-1.2,1.2-1.2h7.1c0.7,0,1.2,0.5,1.2,1.2L46.8,69.3L46.8,69.3z
	 M46.8,45.6c0,0.7-0.5,1.2-1.2,1.2h-7.1c-0.7,0-1.2-0.5-1.2-1.2v-7.1c0-0.7,0.5-1.2,1.2-1.2h7.1c0.7,0,1.2,0.5,1.2,1.2L46.8,45.6
	L46.8,45.6z M46.8,33.8c0,0.7-0.5,1.2-1.2,1.2h-7.1c-0.7,0-1.2-0.5-1.2-1.2v-7.1c0-0.7,0.5-1.2,1.2-1.2h7.1c0.7,0,1.2,0.5,1.2,1.2
	L46.8,33.8L46.8,33.8z M58.7,69.3c0,0.7-0.5,1.2-1.2,1.2h-7.1c-0.7,0-1.2-0.5-1.2-1.2v-7.1c0-0.7,0.5-1.2,1.2-1.2h7.1
	c0.7,0,1.2,0.5,1.2,1.2L58.7,69.3L58.7,69.3z M58.7,57.5c0,0.7-0.5,1.2-1.2,1.2h-7.1c-0.7,0-1.2-0.5-1.2-1.2v-7.1
	c0-0.7,0.5-1.2,1.2-1.2h7.1c0.7,0,1.2,0.5,1.2,1.2L58.7,57.5L58.7,57.5z M58.7,33.8c0,0.7-0.5,1.2-1.2,1.2h-7.1
	c-0.7,0-1.2-0.5-1.2-1.2v-7.1c0-0.7,0.5-1.2,1.2-1.2h7.1c0.7,0,1.2,0.5,1.2,1.2L58.7,33.8L58.7,33.8z M70.5,69.3
	c0,0.7-0.5,1.2-1.2,1.2h-7.1c-0.7,0-1.2-0.5-1.2-1.2v-7.1c0-0.7,0.5-1.2,1.2-1.2h7.1c0.7,0,1.2,0.5,1.2,1.2V69.3z M70.5,57.5
	c0,0.7-0.5,1.2-1.2,1.2h-7.1c-0.7,0-1.2-0.5-1.2-1.2v-7.1c0-0.7,0.5-1.2,1.2-1.2h7.1c0.7,0,1.2,0.5,1.2,1.2V57.5z M70.5,45.6
	c0,0.7-0.5,1.2-1.2,1.2h-7.1c-0.7,0-1.2-0.5-1.2-1.2v-7.1c0-0.7,0.5-1.2,1.2-1.2h7.1c0.7,0,1.2,0.5,1.2,1.2V45.6z"/>
</svg>
